<?xml version="1.0" standalone="no"?>
<!DOCTYPE svg PUBLIC "-//W3C//DTD SVG 20010904//EN"
 "http://www.w3.org/TR/2001/REC-SVG-20010904/DTD/svg10.dtd">
<svg version="1.0" xmlns="http://www.w3.org/2000/svg"
 width="1320.000000pt" height="1000.000000pt" viewBox="0 0 1320.000000 1000.000000"
 preserveAspectRatio="xMidYMid meet">

<g transform="translate(0.000000,1000.000000) scale(0.100000,-0.100000)"
fill="#000000" stroke="none">
<path d="M0 5000 l0 -5000 6600 0 6600 0 0 5000 0 5000 -6600 0 -6600 0 0
-5000z m7020 3476 c557 -73 1064 -263 1530 -576 290 -195 587 -471 793 -739
31 -40 58 -76 58 -80 2 -10 5 -281 3 -281 -1 0 -38 51 -81 113 -324 458 -751
819 -1265 1072 -460 227 -931 335 -1457 335 -242 0 -425 -17 -650 -61 -841
-165 -1587 -653 -2094 -1371 -34 -49 -64 -88 -67 -88 -3 0 -5 60 -5 134 l0
133 52 71 c168 225 425 479 672 664 326 245 741 451 1141 567 180 52 489 108
695 125 114 9 555 -3 675 -18z m-85 -1399 c314 -150 340 -165 343 -190 2 -15
-1 -27 -7 -27 -6 0 -162 70 -346 156 l-335 157 -98 -46 c-53 -24 -204 -95
-335 -156 -131 -61 -240 -111 -243 -111 -2 0 -4 12 -4 26 0 24 21 36 288 165
158 76 310 150 337 163 28 14 52 25 55 25 3 1 158 -72 345 -162z m-185 -142
c93 -47 150 -81 150 -90 0 -8 -4 -15 -10 -15 -5 0 -75 30 -155 66 l-146 67
-137 -63 c-173 -79 -162 -75 -162 -53 0 14 35 36 143 90 78 40 148 72 155 72
7 1 80 -33 162 -74z m-219 -236 c21 -10 46 -19 55 -19 9 0 81 29 161 65 80 36
147 65 149 65 2 0 4 -6 4 -14 0 -17 -29 -34 -188 -111 l-123 -59 -149 74
c-106 53 -150 79 -150 92 0 14 16 10 102 -28 56 -25 118 -54 139 -65z m-150
-138 c107 -50 202 -91 209 -91 7 0 68 25 134 56 327 153 549 254 550 252 1 -2
-1 -70 -4 -153 l-6 -150 -3 135 c-1 87 -5 127 -11 114 -5 -12 -29 -30 -54 -40
l-46 -19 -2 -270 -3 -270 -2 267 -3 267 -35 -20 -35 -21 0 -119 c0 -73 -4
-119 -10 -119 -6 0 -10 45 -10 114 l0 115 -50 -21 -50 -21 0 -268 c0 -173 -4
-269 -10 -269 -6 0 -10 94 -10 261 0 245 -1 261 -17 254 -10 -4 -26 -10 -35
-12 -16 -5 -18 -21 -20 -132 l-2 -126 -3 121 -4 120 -54 -25 -55 -25 -2 -271
-3 -270 -2 267 -3 268 -55 -27 -55 -27 0 -433 0 -433 55 27 55 27 2 111 2 110
3 -108 c2 -60 7 -107 11 -105 4 2 29 12 55 23 l47 20 2 260 3 260 2 -256 3
-256 35 15 35 16 0 113 c0 69 4 113 10 113 6 0 10 -42 10 -105 0 -58 2 -105 4
-105 2 0 24 9 50 20 l46 21 0 259 c0 167 4 260 10 260 6 0 10 -92 10 -255 l0
-255 35 17 35 17 2 115 2 116 3 -112 c2 -62 6 -113 9 -113 3 0 22 9 44 20 48
24 49 24 52 3 2 -10 5 110 8 267 l5 285 5 -289 5 -290 -260 -126 c-143 -70
-297 -144 -343 -165 l-82 -38 -339 163 c-262 125 -341 167 -345 184 -10 39 -7
566 4 566 6 0 10 -95 10 -265 l0 -264 28 -14 c74 -38 72 -41 72 82 0 67 4 111
10 111 6 0 10 -46 10 -118 l0 -118 35 -17 35 -17 3 263 2 262 3 -265 2 -265
47 -20 c26 -11 51 -21 55 -23 4 -2 9 48 11 110 l3 113 2 -116 2 -115 35 -17
35 -17 0 256 c0 167 3 253 10 249 6 -4 10 -102 10 -261 l0 -255 46 -19 c25
-11 48 -20 50 -20 2 0 4 47 4 105 0 63 4 105 10 105 6 0 10 -45 10 -115 0 -63
2 -115 4 -115 2 0 29 -11 60 -25 l56 -25 0 434 0 433 -57 25 -58 25 -3 -258
c-1 -161 -6 -259 -12 -259 -6 0 -10 98 -10 265 l0 265 -50 25 -50 25 0 -115
c0 -70 -4 -115 -10 -115 -6 0 -10 46 -10 118 l0 118 -35 17 -35 17 -3 -263 -2
-262 -3 265 -2 266 -55 27 -54 26 -4 -117 -3 -117 -2 122 -2 121 -31 11 c-18
6 -34 11 -35 11 -2 0 -4 -112 -4 -249 0 -156 -4 -252 -10 -256 -7 -4 -10 84
-10 257 l0 264 -45 22 c-25 12 -48 22 -50 22 -3 0 -5 -47 -5 -104 0 -59 -4
-108 -10 -111 -11 -7 -15 241 -4 268 6 16 38 3 475 -202z m-181 -1626 l0 -175
-230 0 -230 0 0 -785 0 -785 -58 0 c-33 0 -120 3 -195 7 l-137 6 0 779 0 778
-63 0 -62 0 0 175 0 175 487 0 488 0 0 -175z m1604 160 c38 -8 89 -22 113 -31
l43 -17 0 -553 0 -554 -37 -15 c-75 -32 -200 -45 -419 -45 l-214 0 -2 -342 -3
-343 -197 -3 -198 -2 0 960 0 960 423 0 c332 0 437 -3 491 -15z m-3927 -2012
c172 -242 429 -512 660 -690 527 -410 1093 -636 1756 -703 153 -16 612 -7 757
14 729 106 1378 428 1891 937 159 158 323 353 424 507 15 23 31 42 34 42 4 0
6 -60 6 -134 l0 -133 -52 -70 c-176 -236 -490 -538 -744 -716 -602 -419 -1293
-637 -2022 -637 -739 0 -1477 247 -2070 694 -239 179 -424 354 -598 564 -140
169 -133 153 -134 315 -1 135 0 139 17 116 9 -13 43 -61 75 -106z m2778 -77
c18 -8 38 -23 44 -34 9 -17 8 -22 -10 -27 -13 -4 -27 -1 -39 10 -24 21 -65 16
-65 -8 0 -13 17 -25 55 -40 41 -17 57 -29 64 -50 29 -81 -99 -132 -164 -67
-27 27 -25 47 4 52 15 3 27 -2 35 -14 7 -11 23 -18 42 -18 26 0 30 3 27 22 -2
16 -16 27 -48 39 -25 9 -54 29 -65 43 -18 25 -18 29 -4 54 14 26 52 52 77 52
7 0 28 -6 47 -14z m-1079 -13 c-3 -10 -17 -64 -32 -120 -15 -57 -31 -103 -36
-103 -14 0 -9 98 8 163 19 75 20 77 45 77 15 0 19 -5 15 -17z m231 -3 c66 -40
66 -155 0 -204 -33 -24 -107 -25 -144 0 -26 17 -53 70 -53 105 0 34 31 89 59
104 37 20 101 18 138 -5z m281 4 c50 -35 67 -120 35 -175 -11 -18 -34 -35 -60
-45 -105 -41 -199 53 -163 161 7 22 24 44 44 56 38 23 113 25 144 3z m277 -16
c31 -36 40 -96 21 -141 -21 -51 -56 -70 -129 -71 l-62 -1 -3 124 -3 123 77 -4
c68 -3 79 -6 99 -30z m535 12 c0 -17 -7 -20 -45 -20 -43 0 -45 -1 -45 -30 0
-28 2 -30 40 -30 36 0 40 -2 40 -25 0 -22 -4 -25 -40 -25 -36 0 -40 -2 -40
-25 0 -23 4 -25 45 -25 41 0 45 -2 45 -25 0 -24 -2 -25 -70 -25 l-70 0 0 125
0 125 70 0 c63 0 70 -2 70 -20z m200 0 c28 -28 26 -74 -4 -98 l-25 -19 35 -51
35 -52 -30 0 c-24 0 -34 8 -60 50 -17 28 -35 50 -41 50 -5 0 -10 -22 -10 -49
0 -48 -17 -70 -41 -55 -5 3 -9 59 -9 125 l0 119 65 0 c52 0 69 -4 85 -20z
m135 -62 c15 -46 31 -87 35 -91 4 -5 21 31 37 80 27 79 32 88 56 91 l27 3 -34
-93 c-57 -157 -52 -148 -84 -148 -28 0 -31 5 -71 114 -22 62 -41 116 -41 120
0 3 11 6 24 6 22 0 27 -9 51 -82z m245 -38 l0 -120 -25 0 -25 0 0 120 0 120
25 0 25 0 0 -120z m206 103 c-2 -10 -11 -19 -22 -21 -56 -8 -66 -14 -80 -47
-12 -30 -12 -40 0 -69 17 -41 28 -48 71 -48 25 0 32 -4 31 -16 -3 -21 -66 -28
-96 -12 -28 15 -60 69 -60 101 0 75 51 129 122 129 29 0 36 -4 34 -17z"/>
<path d="M7290 4495 l0 -287 218 4 c212 3 218 4 267 30 95 50 138 127 138 243
0 136 -44 218 -141 263 -55 26 -64 27 -269 30 l-213 3 0 -286z"/>
<path d="M5686 2949 c-20 -16 -26 -29 -26 -60 0 -49 27 -79 73 -79 70 0 103
85 52 135 -30 30 -64 32 -99 4z"/>
<path d="M5965 2945 c-31 -30 -32 -73 -4 -109 43 -54 129 -19 129 53 0 39 -38
81 -75 81 -14 0 -37 -11 -50 -25z"/>
<path d="M6240 2891 l0 -81 30 0 c42 0 70 31 70 78 0 49 -16 69 -62 77 l-38 7
0 -81z"/>
<path d="M7000 2940 c0 -29 2 -31 33 -28 27 2 32 7 32 28 0 21 -5 26 -32 28
-31 3 -33 1 -33 -28z"/>
</g>
</svg>
